<svg id="Capa_1" enable-background="new 0 0 512 512" height="512" viewBox="0 0 512 512" width="512" xmlns="http://www.w3.org/2000/svg"><path d="m502 68.498h-492c-5.522 0-10 4.478-10 10v355.004c0 5.522 4.478 10 10 10h492c5.522 0 10-4.478 10-10v-355.004c0-5.522-4.478-10-10-10zm-256 252.724c-31.653-4.833-55.979-32.24-55.979-65.222s24.326-60.389 55.979-65.222zm20-130.444c31.653 4.833 55.979 32.24 55.979 65.222s-24.326 60.389-55.979 65.222zm-246-4.65h59.511v139.744h-59.511zm0 159.744h69.511c5.522 0 10-4.478 10-10v-159.744c0-5.522-4.478-10-10-10h-69.511v-77.63h226v82.102c-42.715 4.97-75.979 41.373-75.979 85.4s33.263 80.43 75.979 85.4v82.102h-226zm246 77.63v-82.102c42.715-4.97 75.979-41.373 75.979-85.4s-33.264-80.43-75.979-85.4v-82.102h226v77.63h-69.511c-5.522 0-10 4.478-10 10v159.744c0 5.522 4.478 10 10 10h69.511v77.63zm226-97.63h-59.511v-139.744h59.511z"/></svg>